<svg width="44" height="74" viewBox="0 0 44 74" fill="none" xmlns="http://www.w3.org/2000/svg">
<path d="M19.598 0.0999959C22.5314 0.0999959 24.8314 0.433329 26.498 1.09999C28.2314 1.7 29.998 2.6 31.798 3.8C33.2647 4.73333 34.398 5.2 35.198 5.2C35.7981 5.2 36.2647 4.86666 36.598 4.2C36.9314 3.46666 37.198 2.33333 37.398 0.799999H39.698C39.3647 4.66666 39.198 11.4667 39.198 21.2H36.898C36.498 15.8 34.9314 11.2667 32.198 7.59999C29.5314 3.86666 25.6314 2 20.498 2C16.898 2 13.9647 3.09999 11.698 5.29999C9.43138 7.43333 8.29805 10.2 8.29805 13.6C8.29805 16.1333 8.86471 18.3333 9.99805 20.2C11.198 22.0667 12.698 23.6667 14.498 25C16.298 26.3333 18.8647 28.0333 22.198 30.1L25.098 31.9C29.298 34.5 32.598 36.8 34.998 38.8C37.4647 40.7333 39.4314 42.9667 40.898 45.5C42.3647 48.0333 43.098 51 43.098 54.4C43.098 60.4667 41.098 65.1667 37.098 68.5C33.098 71.7667 28.0314 73.4 21.898 73.4C18.698 73.4 16.0647 73.0667 13.998 72.4C11.998 71.7333 10.0647 70.8333 8.19805 69.7C6.73138 68.7667 5.59805 68.3 4.79805 68.3C4.19805 68.3 3.73138 68.6667 3.39805 69.4C3.06471 70.0667 2.79805 71.1667 2.59805 72.7H0.298047C0.564714 69.0333 0.698047 61.0333 0.698047 48.7H2.99805C3.46471 55.4333 5.13138 60.9 7.99805 65.1C10.8647 69.3 15.2647 71.4 21.198 71.4C24.798 71.4 27.8647 70.3 30.398 68.1C32.9314 65.8333 34.198 62.5 34.198 58.1C34.198 54.3667 32.9314 51.2 30.398 48.6C27.9314 46 23.998 43.0667 18.598 39.8C14.6647 37.4 11.4647 35.2667 8.99805 33.4C6.59805 31.5333 4.63138 29.3 3.09805 26.7C1.56471 24.0333 0.798047 20.9333 0.798047 17.4C0.798047 11.8 2.59805 7.53333 6.19805 4.6C9.79805 1.6 14.2647 0.0999959 19.598 0.0999959Z" fill="url(#paint0_linear_240_385)"/>
<defs>
<linearGradient id="paint0_linear_240_385" x1="21" y1="-20" x2="21" y2="134" gradientUnits="userSpaceOnUse">
<stop stop-color="#8C37CF"/>
<stop offset="0.715" stop-color="white"/>
</linearGradient>
</defs>
</svg>
